<svg xmlns="http://www.w3.org/2000/svg" style="display: none;">
  <symbol id="accordion-arrow" viewBox="0 0 16 16">
    <path d="M2.344.929A1 1 0 0 0 .93 2.343L2.344.93Zm12.02 14.435a1 1 0 0 0 1-1v-9a1 1 0 1 0-2 0v8h-8a1 1 0 1 0 0 2h9ZM.93 2.344 13.658 15.07l1.414-1.414L2.344.929.93 2.343Z" fill="#222"/>
  </symbol>
  <symbol id="facebook" viewBox="0 0 32 32">
    <path d="M15.982.096C7.252.096.176 7.209.176 15.982c0 8.011 5.9 14.634 13.57 15.726V20.822h-3.738v-4.373h3.738v-3.226c0-3.743 2.262-5.78 5.567-5.78 1.582 0 2.943.119 3.34.172v3.911l-2.293.002c-1.797 0-2.145.862-2.145 2.128v2.792h4.286l-.558 4.374h-3.727v10.886c7.67-1.09 13.572-7.714 13.572-15.726C31.788 7.21 24.712.096 15.982.096Z" fill="#222"/>
  </symbol>
  <symbol id="instagram" viewBox="0 0 32 32">
    <path d="M15.98 11.335a4.747 4.747 0 0 0-4.742 4.742 4.747 4.747 0 0 0 4.742 4.742 4.747 4.747 0 0 0 4.742-4.742 4.747 4.747 0 0 0-4.742-4.742ZM22.557.176H9.407A9.232 9.232 0 0 0 .176 9.407v13.15a9.232 9.232 0 0 0 9.231 9.231h13.15a9.232 9.232 0 0 0 9.231-9.231V9.407A9.232 9.232 0 0 0 22.557.176Zm-6.575 24.123c-4.534 0-8.222-3.688-8.222-8.222 0-4.534 3.688-8.222 8.222-8.222 4.534 0 8.222 3.688 8.222 8.222 0 4.534-3.688 8.222-8.222 8.222Zm8.403-16.423a1.756 1.756 0 1 1 0-3.513 1.756 1.756 0 0 1 0 3.513Z" fill="#222"/>
  </symbol>
  <symbol id="pin" viewBox="0 0 32 32">
    <path d="M15.98.176C9.118.176 3.555 5.739 3.555 12.6c0 3.064 1.113 5.864 2.952 8.03l9.473 11.157 9.473-11.157a12.367 12.367 0 0 0 2.952-8.03C28.405 5.739 22.842.176 15.98.176Zm0 17.107a5.11 5.11 0 1 1 0-10.22 5.11 5.11 0 0 1 0 10.22Z" fill="#222"/>
  </symbol>
  <symbol id="mail" viewBox="0 0 16 16">
    <path d="m7.993 9.188 7.903-5.948v-.346a.646.646 0 0 0-.646-.645H.736a.646.646 0 0 0-.645.645v.346l7.903 5.948Z" fill="#fff"/>
    <path d="M8.415 10.629a.702.702 0 0 1-.844 0L.09 4.999v8.089c0 .357.289.646.645.646h14.516a.646.646 0 0 0 .645-.646v-8.09l-7.48 5.63Z" fill="#fff"/>
  </symbol>
  <symbol id="phone" viewBox="0 0 16 16">
    <path d="M15.378 14.439c.04-.049.078-.1.114-.15l.017-.024c.032-.048.061-.096.09-.145l.022-.039c.026-.046.049-.094.07-.142l.023-.05a2.21 2.21 0 0 0 .054-.139l.02-.059a2.322 2.322 0 0 0 .06-1.157l-.024-.099-.028-.103c-.01-.034-.023-.068-.036-.102-.011-.032-.022-.064-.035-.096-.015-.035-.032-.07-.049-.104-.014-.03-.027-.06-.043-.088-.019-.037-.041-.072-.063-.108-.015-.025-.03-.052-.047-.077-.026-.04-.055-.077-.085-.115-.015-.02-.029-.041-.045-.06a2.222 2.222 0 0 0-.149-.166l-1.433-1.433a2.262 2.262 0 0 0-.165-.15l-.06-.044c-.038-.029-.076-.059-.116-.085-.025-.017-.051-.03-.077-.046-.036-.022-.071-.044-.108-.064-.028-.015-.058-.028-.087-.042-.035-.017-.07-.034-.105-.049l-.096-.036c-.034-.012-.068-.025-.102-.035-.034-.011-.07-.02-.104-.029a2.398 2.398 0 0 0-.209-.043 2.39 2.39 0 0 0-.3-.028 2.212 2.212 0 0 0-.542.052l-.067.016a2.255 2.255 0 0 0-.137.039l-.058.02a2.333 2.333 0 0 0-.14.054l-.05.023a2.256 2.256 0 0 0-.142.07l-.038.022c-.05.029-.098.058-.146.09l-.023.017a2.175 2.175 0 0 0-.298.248l-.97.97a.318.318 0 0 1-.45 0l-4.19-4.19a.318.318 0 0 1 0-.45l.97-.97a2.245 2.245 0 0 0 .247-.298c.006-.008.012-.015.017-.024.032-.047.062-.096.09-.145l.022-.038c.026-.047.049-.094.07-.142l.024-.05c.02-.046.037-.092.053-.14l.02-.058a2.317 2.317 0 0 0 .093-.952c-.003-.032-.008-.063-.013-.095a2.125 2.125 0 0 0-.02-.11l-.024-.099c-.009-.035-.017-.069-.028-.103-.01-.035-.023-.068-.036-.103-.011-.031-.022-.064-.035-.095-.015-.036-.032-.07-.049-.105-.014-.03-.027-.059-.042-.087-.02-.037-.042-.072-.064-.108-.015-.026-.03-.052-.047-.077-.026-.04-.055-.078-.084-.116l-.045-.06A2.232 2.232 0 0 0 6 2.173L4.567.74a2.27 2.27 0 0 0-.165-.15c-.02-.016-.04-.03-.06-.044-.038-.03-.076-.059-.116-.085C4.201.444 4.175.43 4.15.414 4.114.392 4.08.37 4.041.351 4.013.335 3.983.322 3.954.308L3.85.26 3.753.224C3.719.21 3.686.199 3.651.188c-.034-.01-.069-.02-.104-.028a2.19 2.19 0 0 0-.42-.067 2.15 2.15 0 0 0-.498.023 2.304 2.304 0 0 0-.133.025 2.308 2.308 0 0 0-.514.175l-.023.012a1.914 1.914 0 0 0-.15.08l-.019.01c-.049.03-.097.059-.146.09l-.023.016a2.175 2.175 0 0 0-.297.247L.098 2.245c-.95.95-.98 2.448-.116 3.424L10.331 15.99a2.423 2.423 0 0 0 3.308.046l.009-.008Z" fill="#fff"/>
  </symbol>
</svg>
