<svg xmlns="http://www.w3.org/2000/svg" style="display: none;">
  <symbol id="accordion-arrow" viewBox="0 0 16 16">
    <path d="M2.344.929A1 1 0 0 0 .93 2.343L2.344.93Zm12.02 14.435a1 1 0 0 0 1-1v-9a1 1 0 1 0-2 0v8h-8a1 1 0 1 0 0 2h9ZM.93 2.344 13.658 15.07l1.414-1.414L2.344.929.93 2.343Z"/>
  </symbol>
  <symbol id="facebook" viewBox="0 0 32 32">
    <path d="M15.982.096C7.252.096.176 7.209.176 15.982c0 8.011 5.9 14.634 13.57 15.726V20.822h-3.738v-4.373h3.738v-3.226c0-3.743 2.262-5.78 5.567-5.78 1.582 0 2.943.119 3.34.172v3.911l-2.293.002c-1.797 0-2.145.862-2.145 2.128v2.792h4.286l-.558 4.374h-3.727v10.886c7.67-1.09 13.572-7.714 13.572-15.726C31.788 7.21 24.712.096 15.982.096Z" fill="#222"/>
  </symbol>
  <symbol id="instagram" viewBox="0 0 32 32">
    <path d="M15.98 11.335a4.747 4.747 0 0 0-4.742 4.742 4.747 4.747 0 0 0 4.742 4.742 4.747 4.747 0 0 0 4.742-4.742 4.747 4.747 0 0 0-4.742-4.742ZM22.557.176H9.407A9.232 9.232 0 0 0 .176 9.407v13.15a9.232 9.232 0 0 0 9.231 9.231h13.15a9.232 9.232 0 0 0 9.231-9.231V9.407A9.232 9.232 0 0 0 22.557.176Zm-6.575 24.123c-4.534 0-8.222-3.688-8.222-8.222 0-4.534 3.688-8.222 8.222-8.222 4.534 0 8.222 3.688 8.222 8.222 0 4.534-3.688 8.222-8.222 8.222Zm8.403-16.423a1.756 1.756 0 1 1 0-3.513 1.756 1.756 0 0 1 0 3.513Z" fill="#222"/>
  </symbol>
  <symbol id="pin" viewBox="0 0 32 32">
    <path d="M15.98.176C9.118.176 3.555 5.739 3.555 12.6c0 3.064 1.113 5.864 2.952 8.03l9.473 11.157 9.473-11.157a12.367 12.367 0 0 0 2.952-8.03C28.405 5.739 22.842.176 15.98.176Zm0 17.107a5.11 5.11 0 1 1 0-10.22 5.11 5.11 0 0 1 0 10.22Z" fill="#222"/>
  </symbol>
  <symbol id="mail" viewBox="0 0 16 16">
    <path d="m7.993 9.188 7.903-5.948v-.346a.646.646 0 0 0-.646-.645H.736a.646.646 0 0 0-.645.645v.346l7.903 5.948Z" fill="#fff"/>
    <path d="M8.415 10.629a.702.702 0 0 1-.844 0L.09 4.999v8.089c0 .357.289.646.645.646h14.516a.646.646 0 0 0 .645-.646v-8.09l-7.48 5.63Z" fill="#fff"/>
  </symbol>
  <symbol fill="none" viewBox="0 0 16 16" id="phone">
    <g clip-path="url(#aa)" fill="#fff">
      <path d="M15.378 14.439c.04-.049.078-.1.114-.15l.017-.024c.032-.048.061-.096.09-.145l.022-.039c.026-.046.049-.094.07-.142l.023-.05a2.21 2.21 0 0 0 .054-.139l.02-.059a2.322 2.322 0 0 0 .06-1.157l-.024-.099-.028-.103c-.01-.034-.023-.068-.036-.102a1.853 1.853 0 0 0-.035-.096 1.971 1.971 0 0 0-.049-.104c-.014-.03-.027-.06-.043-.088-.019-.037-.041-.072-.063-.108-.015-.025-.03-.052-.047-.077a1.548 1.548 0 0 0-.085-.115c-.015-.02-.029-.041-.045-.06a2.222 2.222 0 0 0-.149-.166l-1.433-1.433a2.262 2.262 0 0 0-.165-.15l-.06-.044c-.038-.029-.076-.059-.116-.085-.025-.017-.051-.03-.077-.046-.036-.022-.071-.044-.108-.064-.028-.015-.058-.028-.087-.042a2.47 2.47 0 0 0-.105-.049l-.096-.036c-.034-.012-.068-.025-.102-.035-.034-.011-.07-.02-.104-.029a2.398 2.398 0 0 0-.209-.043 2.39 2.39 0 0 0-.3-.028 2.212 2.212 0 0 0-.542.052l-.067.016a2.255 2.255 0 0 0-.137.039l-.058.02a2.333 2.333 0 0 0-.14.054l-.05.023a2.256 2.256 0 0 0-.142.07l-.038.022c-.05.029-.098.058-.146.09l-.023.017a2.175 2.175 0 0 0-.298.248l-.97.97a.318.318 0 0 1-.45 0l-4.19-4.19a.318.318 0 0 1 0-.45l.97-.97a2.245 2.245 0 0 0 .247-.298c.006-.008.012-.015.017-.024a2.18 2.18 0 0 0 .09-.145l.022-.038c.026-.047.049-.094.07-.142l.024-.05a1.68 1.68 0 0 0 .053-.14l.02-.058a2.317 2.317 0 0 0 .093-.952c-.003-.032-.008-.063-.013-.095a2.125 2.125 0 0 0-.02-.11l-.024-.099c-.009-.035-.017-.069-.028-.103-.01-.035-.023-.068-.036-.103-.011-.031-.022-.064-.035-.095-.015-.036-.032-.07-.049-.105-.014-.03-.027-.059-.042-.087-.02-.037-.042-.072-.064-.108a1.218 1.218 0 0 0-.131-.193l-.045-.06A2.232 2.232 0 0 0 6 2.173L4.567.74a2.27 2.27 0 0 0-.165-.15c-.02-.016-.04-.03-.06-.044a1.564 1.564 0 0 0-.116-.085C4.201.444 4.175.43 4.15.414 4.114.392 4.08.37 4.041.351 4.013.335 3.983.322 3.954.308L3.85.26 3.753.224A1.234 1.234 0 0 0 3.547.16a2.19 2.19 0 0 0-.42-.067 2.15 2.15 0 0 0-.498.023 2.304 2.304 0 0 0-.133.025 2.308 2.308 0 0 0-.204.055l-.058.02a2.309 2.309 0 0 0-.14.054l-.049.022a2.253 2.253 0 0 0-.143.07l-.037.023a1.97 1.97 0 0 0-.146.09l-.023.017a2.223 2.223 0 0 0-.299.248C-.59 2.63-.767 7.009 4.122 11.862c4.853 4.89 9.232 4.712 11.122 2.725.048-.048.091-.098.134-.148Z"/>
      <path d="M2.988.132a2.323 2.323 0 0 1 .252.014l.092.014c.036.005.072.011.108.019.03.006.06.014.097.023l.01.003a1.892 1.892 0 0 1 .178.055l.013.005.02.007.075.028.087.04.016.008.025.012.06.03c.03.015.06.034.09.051l.016.01.027.017.048.03c.036.023.07.05.104.075l.01.008.025.018.034.025c.057.047.111.097.161.147L5.97 2.204a2.1 2.1 0 0 1 .172.196l.019.025.008.01a1.147 1.147 0 0 1 .105.152l.016.026.01.018a1.704 1.704 0 0 1 .082.149l.012.025.007.016c.014.028.028.057.04.086l.028.073.007.021.005.014c.01.028.021.057.03.087.01.03.017.06.025.09l.004.017a2.016 2.016 0 0 1 .068.614 2.524 2.524 0 0 1-.026.281 2.31 2.31 0 0 1-.024.13l-.016.066c-.011.045-.024.09-.038.134l-.014.042-.006.016a2.204 2.204 0 0 1-.066.167l-.01.018a2.196 2.196 0 0 1-.08.16l-.01.017a2.334 2.334 0 0 1-.088.143l-.008.01-.01.013a2.166 2.166 0 0 1-.242.292l-.97.97a.362.362 0 0 0 0 .511l4.19 4.19a.36.36 0 0 0 .512 0l.97-.969a2.12 2.12 0 0 1 .293-.243l.011-.008.011-.008a2.18 2.18 0 0 1 .143-.089l.016-.01a2.084 2.084 0 0 1 .16-.081l.02-.008a1.413 1.413 0 0 1 .166-.066l.017-.006.04-.014c.045-.015.09-.027.14-.04l.06-.014a2.206 2.206 0 0 1 .62-.047c.038.002.076.005.114.01a2.289 2.289 0 0 1 .2.032l.097.024.01.002a1.897 1.897 0 0 1 .18.056l.012.004.02.008c.025.009.05.017.074.028.03.012.059.026.087.04l.016.007.025.012.06.03c.03.016.06.034.09.052l.017.01.027.016.048.03c.035.023.07.05.104.076l.01.007.024.018.034.026c.058.047.112.096.162.146l1.433 1.433c.05.05.1.105.146.162.01.011.018.023.026.034l.018.025.008.01c.026.034.052.068.075.103.011.016.02.033.03.049l.016.027.01.017a1.746 1.746 0 0 1 .082.15l.012.024.008.017a1.342 1.342 0 0 1 .067.159l.008.02.005.014a1.877 1.877 0 0 1 .055.177l.004.017a2.047 2.047 0 0 1 .064.696 2.284 2.284 0 0 1-.046.33l-.016.066c-.012.045-.024.09-.038.133l-.015.042-.005.016a2.192 2.192 0 0 1-.067.167l-.008.019a2.23 2.23 0 0 1-.081.16l-.01.017a2.616 2.616 0 0 1-.088.142l-.008.01-.01.013a2.112 2.112 0 0 1-.243.293c-.793.834-1.977 1.294-3.333 1.294-2.41 0-5.153-1.428-7.726-4.02C1.536 9.233.108 6.467.134 4.041c.014-1.328.473-2.49 1.294-3.27a2.184 2.184 0 0 1 .293-.243l.012-.009.01-.008c.04-.027.085-.054.144-.088l.016-.01a2.168 2.168 0 0 1 .16-.081l.019-.009a1.5 1.5 0 0 1 .167-.066l.016-.006.041-.014c.044-.014.09-.026.14-.039l.06-.015a2.212 2.212 0 0 1 .482-.051Zm0-.044a2.498 2.498 0 0 0-.358.028 2.305 2.305 0 0 0-.133.024L2.43.157a2.38 2.38 0 0 0-.138.039l-.058.02a2.31 2.31 0 0 0-.14.054l-.049.022a2.253 2.253 0 0 0-.143.07l-.037.023a1.97 1.97 0 0 0-.146.09l-.023.017a2.224 2.224 0 0 0-.299.248C-.59 2.63-.767 7.009 4.122 11.862c2.897 2.919 5.626 4.032 7.757 4.032 1.438 0 2.604-.507 3.365-1.307a2.208 2.208 0 0 0 .248-.298l.017-.024a2.19 2.19 0 0 0 .09-.145l.022-.038c.026-.047.049-.095.07-.143l.024-.049a2.15 2.15 0 0 0 .053-.14l.02-.059a2.324 2.324 0 0 0 .093-.951c-.003-.032-.008-.063-.013-.095a2.148 2.148 0 0 0-.02-.11l-.024-.1c-.009-.034-.017-.068-.028-.102-.01-.035-.023-.069-.035-.103l-.036-.096a1.971 1.971 0 0 0-.049-.104c-.014-.03-.027-.059-.042-.088a2.324 2.324 0 0 0-.064-.107c-.015-.026-.03-.052-.047-.078-.026-.039-.055-.077-.084-.115l-.045-.06a2.203 2.203 0 0 0-.15-.166l-1.433-1.433a2.264 2.264 0 0 0-.165-.149l-.06-.045c-.038-.029-.076-.058-.116-.085l-.076-.046c-.036-.022-.072-.044-.108-.064-.029-.015-.059-.028-.088-.042a1.414 1.414 0 0 0-.105-.048c-.031-.014-.064-.025-.096-.037l-.102-.035a1.765 1.765 0 0 0-.104-.028 2.182 2.182 0 0 0-.209-.044l-.094-.014a2.173 2.173 0 0 0-.329-.013 2.582 2.582 0 0 0-.285.026 2.309 2.309 0 0 0-.134.025l-.067.017a2.228 2.228 0 0 0-.137.038l-.058.02a2.282 2.282 0 0 0-.14.054l-.049.023a2.23 2.23 0 0 0-.143.07l-.038.023a2.18 2.18 0 0 0-.145.09l-.023.017a2.153 2.153 0 0 0-.299.247l-.97.97a.317.317 0 0 1-.449 0l-4.19-4.19a.318.318 0 0 1 0-.45L6 5.343a2.195 2.195 0 0 0 .247-.298l.018-.023c.032-.048.061-.096.09-.146l.022-.038a2.14 2.14 0 0 0 .07-.142l.023-.05c.02-.045.037-.092.054-.14l.02-.058a2.313 2.313 0 0 0 .093-.952l-.014-.095a2.136 2.136 0 0 0-.02-.11c-.006-.033-.015-.066-.023-.099-.01-.034-.018-.069-.029-.103-.01-.034-.023-.068-.035-.102L6.48 2.89l-.048-.105L6.39 2.7c-.02-.037-.042-.072-.063-.108-.016-.026-.03-.052-.047-.077-.027-.04-.056-.077-.085-.116l-.045-.06A2.232 2.232 0 0 0 6 2.173L4.569.74a2.27 2.27 0 0 0-.166-.15l-.06-.044A2.884 2.884 0 0 0 4.227.46L4.15.414C4.114.393 4.078.37 4.042.351L3.954.308 3.85.26C3.818.247 3.786.236 3.753.224 3.72.212 3.686.199 3.652.189c-.035-.011-.07-.02-.104-.029L3.449.136a2.186 2.186 0 0 0-.11-.02c-.032-.004-.063-.01-.094-.013a2.18 2.18 0 0 0-.257-.015Z"/>
      </g>
      <defs>
        <clipPath id="aa">
          <path fill="#fff" d="M0 0h16v16H0z"/>
        </clipPath>
      </defs>
  </symbol>
  <symbol id="phone" viewBox="0 0 16 16">
    <path d="M15.378 14.439c.04-.049.078-.1.114-.15l.017-.024c.032-.048.061-.096.09-.145l.022-.039c.026-.046.049-.094.07-.142l.023-.05a2.21 2.21 0 0 0 .054-.139l.02-.059a2.322 2.322 0 0 0 .06-1.157l-.024-.099-.028-.103c-.01-.034-.023-.068-.036-.102-.011-.032-.022-.064-.035-.096-.015-.035-.032-.07-.049-.104-.014-.03-.027-.06-.043-.088-.019-.037-.041-.072-.063-.108-.015-.025-.03-.052-.047-.077-.026-.04-.055-.077-.085-.115-.015-.02-.029-.041-.045-.06a2.222 2.222 0 0 0-.149-.166l-1.433-1.433a2.262 2.262 0 0 0-.165-.15l-.06-.044c-.038-.029-.076-.059-.116-.085-.025-.017-.051-.03-.077-.046-.036-.022-.071-.044-.108-.064-.028-.015-.058-.028-.087-.042-.035-.017-.07-.034-.105-.049l-.096-.036c-.034-.012-.068-.025-.102-.035-.034-.011-.07-.02-.104-.029a2.398 2.398 0 0 0-.209-.043 2.39 2.39 0 0 0-.3-.028 2.212 2.212 0 0 0-.542.052l-.067.016a2.255 2.255 0 0 0-.137.039l-.058.02a2.333 2.333 0 0 0-.14.054l-.05.023a2.256 2.256 0 0 0-.142.07l-.038.022c-.05.029-.098.058-.146.09l-.023.017a2.175 2.175 0 0 0-.298.248l-.97.97a.318.318 0 0 1-.45 0l-4.19-4.19a.318.318 0 0 1 0-.45l.97-.97a2.245 2.245 0 0 0 .247-.298c.006-.008.012-.015.017-.024.032-.047.062-.096.09-.145l.022-.038c.026-.047.049-.094.07-.142l.024-.05c.02-.046.037-.092.053-.14l.02-.058a2.317 2.317 0 0 0 .093-.952c-.003-.032-.008-.063-.013-.095a2.125 2.125 0 0 0-.02-.11l-.024-.099c-.009-.035-.017-.069-.028-.103-.01-.035-.023-.068-.036-.103-.011-.031-.022-.064-.035-.095-.015-.036-.032-.07-.049-.105-.014-.03-.027-.059-.042-.087-.02-.037-.042-.072-.064-.108-.015-.026-.03-.052-.047-.077-.026-.04-.055-.078-.084-.116l-.045-.06A2.232 2.232 0 0 0 6 2.173L4.567.74a2.27 2.27 0 0 0-.165-.15c-.02-.016-.04-.03-.06-.044-.038-.03-.076-.059-.116-.085C4.201.444 4.175.43 4.15.414 4.114.392 4.08.37 4.041.351 4.013.335 3.983.322 3.954.308L3.85.26 3.753.224C3.719.21 3.686.199 3.651.188c-.034-.01-.069-.02-.104-.028a2.19 2.19 0 0 0-.42-.067 2.15 2.15 0 0 0-.498.023 2.304 2.304 0 0 0-.133.025 2.308 2.308 0 0 0-.514.175l-.023.012a1.914 1.914 0 0 0-.15.08l-.019.01c-.049.03-.097.059-.146.09l-.023.016a2.175 2.175 0 0 0-.297.247L.098 2.245c-.95.95-.98 2.448-.116 3.424L10.331 15.99a2.423 2.423 0 0 0 3.308.046l.009-.008Z" fill="#fff"/>
  </symbol>
  <symbol viewBox="0 0 18 16" id="slider-arrow">
    <path d="M16.5 9a1 1 0 1 0 0-2v2ZM.793 7.293a1 1 0 0 0 0 1.414l6.364 6.364a1 1 0 0 0 1.414-1.414L2.914 8l5.657-5.657A1 1 0 0 0 7.157.93L.793 7.293ZM16.5 7h-15v2h15V7Z"/>
  </symbol>
</svg>
